# xmcd
#
# Track frame offsets: 
#        150
#        11233
#        24781
#        39759
#        54584
#        66668
#        79570
#        94641
#        107695
#        124119
#        144167
#        157763
#
# Disc length: 2281 seconds
#
# Revision: 0
# Processed by: cddbd v1.5.2PL0 Copyright (c) Steve Scherf et al.
# Submitted via: ExactAudioCopy v1.0b3
#
DISCID=8808e70c
DTITLE=Suzanne Prentice - I'll Do It All Over Again
DYEAR=2012
DGENRE=Country
TTITLE0=I'll Do It All Over Again
TTITLE1=I Have Loved Me A Man
TTITLE2=Runaway
TTITLE3=24 Hours From Tulsa
TTITLE4=What I've Got In Mind
TTITLE5=Somebody's Knocking
TTITLE6=Rolling in the Deep
TTITLE7=Tennesee Waltz
TTITLE8=That's What Friends Are For
TTITLE9=Halleujah
TTITLE10=Zoot Suit Riot
TTITLE11=It's Only Make Believe
EXTD=
EXTT0=
EXTT1=
EXTT2=
EXTT3=
EXTT4=
EXTT5=
EXTT6=
EXTT7=
EXTT8=
EXTT9=
EXTT10=
EXTT11=
PLAYORDER=
